<?xml version="1.0" encoding="UTF-8" standalone="no"?>
<!-- Created with Inkscape (http://www.inkscape.org/) -->

<svg
   xmlns:dc="http://purl.org/dc/elements/1.1/"
   xmlns:cc="http://creativecommons.org/ns#"
   xmlns:rdf="http://www.w3.org/1999/02/22-rdf-syntax-ns#"
   xmlns:svg="http://www.w3.org/2000/svg"
   xmlns="http://www.w3.org/2000/svg"
   xmlns:sodipodi="http://sodipodi.sourceforge.net/DTD/sodipodi-0.dtd"
   xmlns:inkscape="http://www.inkscape.org/namespaces/inkscape"
   version="1.1"
   id="svg2441"
   xml:space="preserve"
   width="465.46155"
   height="297.74994"
   viewBox="0 0 465.46155 297.74994"
   sodipodi:docname="state_machine.svg"
   inkscape:version="0.92.4 5da689c313, 2019-01-14"><metadata
     id="metadata2447"><rdf:RDF><cc:Work
         rdf:about=""><dc:format>image/svg+xml</dc:format><dc:type
           rdf:resource="http://purl.org/dc/dcmitype/StillImage" /><dc:title></dc:title></cc:Work></rdf:RDF></metadata><defs
     id="defs2445" /><sodipodi:namedview
     pagecolor="#ffffff"
     bordercolor="#666666"
     borderopacity="1"
     objecttolerance="10"
     gridtolerance="10"
     guidetolerance="10"
     inkscape:pageopacity="0"
     inkscape:pageshadow="2"
     inkscape:window-width="1366"
     inkscape:window-height="731"
     id="namedview2443"
     showgrid="false"
     fit-margin-top="0"
     fit-margin-left="0"
     fit-margin-right="0"
     fit-margin-bottom="0"
     inkscape:zoom="0.87310606"
     inkscape:cx="302.51479"
     inkscape:cy="140.75794"
     inkscape:window-x="0"
     inkscape:window-y="18"
     inkscape:window-maximized="0"
     inkscape:current-layer="g2449" /><g
     id="g2449"
     inkscape:groupmode="layer"
     inkscape:label="state_machine"
     transform="matrix(1.3333333,0,0,-1.3333333,-203.43062,889.60026)"><g
       id="g2453"
       transform="translate(217.975,470.218)"><g
         id="g2455"><g
           id="g2457"><path
             inkscape:connector-curvature="0"
             id="path2459"
             style="fill:none;stroke:#000000;stroke-width:0.59776002;stroke-linecap:butt;stroke-linejoin:miter;stroke-miterlimit:10;stroke-dasharray:none;stroke-opacity:1"
             d="m 28.59406,85.04042 c 0,15.79227 -12.80179,28.59407 -28.59406,28.59407 -15.79227,0 -28.59406,-12.8018 -28.59406,-28.59407 0,-15.79227 12.80179,-28.59407 28.59406,-28.59407 15.79227,0 28.59406,12.8018 28.59406,28.59407 z" /><g
             transform="translate(-24.492,81.636)"
             id="g2461"><g
               id="g2463"><g
                 transform="translate(-193.483,-551.854)"
                 id="g2465"><text
                   id="text2469"
                   style="font-variant:normal;font-weight:normal;font-size:9.96259975px;font-family:CMR10;-inkscape-font-specification:CMR10;writing-mode:lr-tb;fill:#000000;fill-opacity:1;fill-rule:nonzero;stroke:none"
                   transform="matrix(1,0,0,-1,193.483,551.854)"><tspan
                     id="tspan2467"
                     sodipodi:role="line"
                     y="0"
                     x="0 5.5352206 11.903315 19.375265 26.847214 34.457645 41.514153">STANDBY</tspan></text>
<g
                   transform="translate(193.483,551.854)"
                   id="g2471" /></g></g><g
               transform="translate(24.492,-81.636)"
               id="g2473" /></g></g><g
           id="g2475"><path
             inkscape:connector-curvature="0"
             id="path2477"
             style="fill:none;stroke:#000000;stroke-width:0.59776002;stroke-linecap:butt;stroke-linejoin:miter;stroke-miterlimit:10;stroke-dasharray:none;stroke-opacity:1"
             d="m -41.76149,85.04042 h 10.65681" /><g
             transform="translate(-31.10468,85.04042)"
             id="g2479"><g
               id="g2481"><path
                 inkscape:connector-curvature="0"
                 id="path2483"
                 style="fill:#000000;fill-opacity:1;fill-rule:nonzero;stroke:#000000;stroke-width:0.59776002;stroke-linecap:butt;stroke-linejoin:round;stroke-miterlimit:10;stroke-dasharray:none;stroke-opacity:1"
                 d="m 0.91655,0 c -1.14568,0.22913 -2.29138,0.68741 -3.66621,1.4894 1.37483,-1.03113 1.37483,-1.94767 0,-2.9788 1.37483,0.80199 2.52053,1.26027 3.66621,1.4894 z" /></g></g><g
             id="g2485"><g
               transform="translate(-65.942,81.976)"
               id="g2487"><g
                 id="g2489"><g
                   transform="translate(-152.033,-552.194)"
                   id="g2491"><text
                     id="text2495"
                     style="font-variant:normal;font-weight:normal;font-size:9.96259975px;font-family:CMR10;-inkscape-font-specification:CMR10;writing-mode:lr-tb;fill:#000000;fill-opacity:1;fill-rule:nonzero;stroke:none"
                     transform="matrix(1,0,0,-1,152.033,552.194)"><tspan
                       id="tspan2493"
                       sodipodi:role="line"
                       y="0"
                       x="0 3.9292495 7.8037047 12.785005 16.687355">start</tspan></text>
<g
                     transform="translate(152.033,552.194)"
                     id="g2497" /></g></g><g
                 transform="translate(65.942,-81.976)"
                 id="g2499" /></g></g></g><g
           id="g2501"><path
             inkscape:connector-curvature="0"
             id="path2503"
             style="fill:none;stroke:#000000;stroke-width:0.59776002;stroke-linecap:butt;stroke-linejoin:miter;stroke-miterlimit:10;stroke-dasharray:none;stroke-opacity:1"
             d="m 154.16312,170.08086 c 0,14.69232 -11.91016,26.60247 -26.6025,26.60247 -14.69232,0 -26.60247,-11.91015 -26.60247,-26.60247 0,-14.69234 11.91015,-26.6025 26.60247,-26.6025 14.69234,0 26.6025,11.91016 26.6025,26.6025 z" /><g
             transform="translate(105.005,166.675)"
             id="g2505"><g
               id="g2507"><g
                 transform="translate(-322.98,-636.893)"
                 id="g2509"><text
                   id="text2513"
                   style="font-variant:normal;font-weight:normal;font-size:9.96259975px;font-family:CMR10;-inkscape-font-specification:CMR10;writing-mode:lr-tb;fill:#000000;fill-opacity:1;fill-rule:nonzero;stroke:none"
                   transform="matrix(1,0,0,-1,322.98,636.893)"><tspan
                     id="tspan2511"
                     sodipodi:role="line"
                     y="0"
                     x="0 7.3334699 10.930964 18.402914 26.220568 29.818062 37.290012">RINGING</tspan></text>
<g
                   transform="translate(322.98,636.893)"
                   id="g2515" /></g></g><g
               transform="translate(-105.005,-166.675)"
               id="g2517" /></g></g><g
           id="g2519"><path
             inkscape:connector-curvature="0"
             id="path2521"
             style="fill:none;stroke:#000000;stroke-width:0.59776002;stroke-linecap:butt;stroke-linejoin:miter;stroke-miterlimit:10;stroke-dasharray:none;stroke-opacity:1"
             d="m 153.59201,0 c 0,14.37689 -11.65448,26.03137 -26.03139,26.03137 -14.3769,0 -26.03137,-11.65448 -26.03137,-26.03137 0,-14.37689 11.65447,-26.03137 26.03137,-26.03137 14.37691,0 26.03139,11.65448 26.03139,26.03137 z" /><g
             transform="translate(105.662,-3.404)"
             id="g2523"><g
               id="g2525"><g
                 transform="translate(-323.637,-466.814)"
                 id="g2527"><text
                   id="text2531"
                   style="font-variant:normal;font-weight:normal;font-size:9.96259975px;font-family:CMR10;-inkscape-font-specification:CMR10;writing-mode:lr-tb;fill:#000000;fill-opacity:1;fill-rule:nonzero;stroke:none"
                   transform="matrix(1,0,0,-1,323.637,466.814)"><tspan
                     id="tspan2529"
                     sodipodi:role="line"
                     y="0"
                     x="0 7.6104302 11.207925 18.679874 24.9065 28.503994 35.975945">DIALING</tspan></text>
<g
                   transform="translate(323.637,466.814)"
                   id="g2533" /></g></g><g
               transform="translate(-105.662,3.404)"
               id="g2535" /></g></g><g
           id="g2537"><path
             inkscape:connector-curvature="0"
             id="path2539"
             style="fill:none;stroke:#000000;stroke-width:0.59776002;stroke-linecap:butt;stroke-linejoin:miter;stroke-miterlimit:10;stroke-dasharray:none;stroke-opacity:1"
             d="m 283.39526,85.04042 c 0,15.61549 -12.65849,28.27397 -28.27398,28.27397 -15.61548,0 -28.27398,-12.65848 -28.27398,-28.27397 0,-15.61548 12.6585,-28.27397 28.27398,-28.27397 15.61549,0 28.27398,12.65849 28.27398,28.27397 z" /><g
             transform="translate(230.938,81.636)"
             id="g2541"><g
               id="g2543"><g
                 transform="translate(-448.913,-551.854)"
                 id="g2545"><text
                   id="text2549"
                   style="font-variant:normal;font-weight:normal;font-size:9.96259975px;font-family:CMR10;-inkscape-font-specification:CMR10;writing-mode:lr-tb;fill:#000000;fill-opacity:1;fill-rule:nonzero;stroke:none"
                   transform="matrix(1,0,0,-1,448.913,551.854)"><tspan
                     id="tspan2547"
                     sodipodi:role="line"
                     y="0"
                     x="0 6.7805457 14.252496 22.001406 29.473356 33.07085 40.542801">PHONING</tspan></text>
<g
                   transform="translate(448.913,551.854)"
                   id="g2551" /></g></g><g
               transform="translate(-230.938,-81.636)"
               id="g2553" /></g></g><g
           id="g2555"><path
             inkscape:connector-curvature="0"
             id="path2557"
             style="fill:none;stroke:#000000;stroke-width:0.59776002;stroke-linecap:butt;stroke-linejoin:miter;stroke-miterlimit:10;stroke-dasharray:none;stroke-opacity:1"
             d="m 24.11433,101.11635 79.14823,52.76571" /><g
             transform="matrix(0.83461,0.55638,-0.55638,0.83461,103.26256,153.88206)"
             id="g2559"><g
               id="g2561"><path
                 inkscape:connector-curvature="0"
                 id="path2563"
                 style="fill:#000000;fill-opacity:1;fill-rule:nonzero;stroke:#000000;stroke-width:0.59776002;stroke-linecap:butt;stroke-linejoin:round;stroke-miterlimit:10;stroke-dasharray:none;stroke-opacity:1"
                 d="m 0.91655,0 c -1.14568,0.22913 -2.29138,0.68741 -3.66621,1.4894 1.37483,-1.03113 1.37483,-1.94767 0,-2.9788 1.37483,0.80199 2.52053,1.26027 3.66621,1.4894 z" /></g></g><g
             id="g2565"><g
               transform="matrix(0.83461,0.55638,-0.55638,0.83461,37.498,116.737)"
               id="g2567"><g
                 id="g2569"><g
                   transform="translate(-255.473,-586.955)"
                   id="g2571"><text
                     id="text2575"
                     style="font-variant:normal;font-weight:normal;font-size:9.96259975px;font-family:CMR10;-inkscape-font-specification:CMR10;writing-mode:lr-tb;fill:#000000;fill-opacity:1;fill-rule:nonzero;stroke:none"
                     transform="matrix(1,0,0,-1,255.473,586.955)"><tspan
                       id="tspan2573"
                       sodipodi:role="line"
                       y="0"
                       x="0 2.7676103 8.3028307 12.73021 17.71151 26.013346 28.780954 34.316177 42.615021 47.0424 52.023701 54.791309">incomingcall</tspan></text>
<g
                     transform="translate(255.473,586.955)"
                     id="g2577" /></g></g><g
                 transform="translate(-37.498,-116.737)"
                 id="g2579" /></g></g></g><g
           id="g2581"><path
             inkscape:connector-curvature="0"
             id="path2583"
             style="fill:none;stroke:#000000;stroke-width:0.59776002;stroke-linecap:butt;stroke-linejoin:miter;stroke-miterlimit:10;stroke-dasharray:none;stroke-opacity:1"
             d="m 24.11433,68.96405 79.6249,-53.08301" /><g
             transform="matrix(0.83461,-0.5564,0.5564,0.83461,103.73923,15.88104)"
             id="g2585"><g
               id="g2587"><path
                 inkscape:connector-curvature="0"
                 id="path2589"
                 style="fill:#000000;fill-opacity:1;fill-rule:nonzero;stroke:#000000;stroke-width:0.59776002;stroke-linecap:butt;stroke-linejoin:round;stroke-miterlimit:10;stroke-dasharray:none;stroke-opacity:1"
                 d="m 0.91655,0 c -1.14568,0.22913 -2.29138,0.68741 -3.66621,1.4894 1.37483,-1.03113 1.37483,-1.94767 0,-2.9788 1.37483,0.80199 2.52053,1.26027 3.66621,1.4894 z" /></g></g><g
             id="g2591"><g
               transform="matrix(0.83461,-0.5564,0.5564,0.83461,53.158,56.299)"
               id="g2593"><g
                 id="g2595"><g
                   transform="translate(-271.133,-526.517)"
                   id="g2597"><text
                     id="text2601"
                     style="font-variant:normal;font-weight:normal;font-size:9.96259975px;font-family:CMR10;-inkscape-font-specification:CMR10;writing-mode:lr-tb;fill:#000000;fill-opacity:1;fill-rule:nonzero;stroke:none"
                     transform="matrix(1,0,0,-1,271.133,526.517)"><tspan
                       id="tspan2599"
                       sodipodi:role="line"
                       y="0"
                       x="0 5.5352206 10.795473 15.776773 24.352579 29.8878">hookup</tspan></text>
<g
                     transform="translate(271.133,526.517)"
                     id="g2603" /></g></g><g
                 transform="translate(-53.158,-56.299)"
                 id="g2605" /></g></g></g><g
           id="g2607"><path
             inkscape:connector-curvature="0"
             id="path2609"
             style="fill:none;stroke:#000000;stroke-width:0.59776002;stroke-linecap:butt;stroke-linejoin:miter;stroke-miterlimit:10;stroke-dasharray:none;stroke-opacity:1"
             d="m 150.01279,155.11139 79.41539,-52.94214" /><g
             transform="matrix(0.83461,-0.55638,0.55638,0.83461,229.42818,102.16925)"
             id="g2611"><g
               id="g2613"><path
                 inkscape:connector-curvature="0"
                 id="path2615"
                 style="fill:#000000;fill-opacity:1;fill-rule:nonzero;stroke:#000000;stroke-width:0.59776002;stroke-linecap:butt;stroke-linejoin:round;stroke-miterlimit:10;stroke-dasharray:none;stroke-opacity:1"
                 d="m 0.91655,0 c -1.14568,0.22913 -2.29138,0.68741 -3.66621,1.4894 1.37483,-1.03113 1.37483,-1.94767 0,-2.9788 1.37483,0.80199 2.52053,1.26027 3.66621,1.4894 z" /></g></g><g
             id="g2617"><g
               transform="matrix(0.83461,-0.55638,0.55638,0.83461,178.95,142.516)"
               id="g2619"><g
                 id="g2621"><g
                   transform="translate(-396.925,-612.734)"
                   id="g2623"><text
                     id="text2627"
                     style="font-variant:normal;font-weight:normal;font-size:9.96259975px;font-family:CMR10;-inkscape-font-specification:CMR10;writing-mode:lr-tb;fill:#000000;fill-opacity:1;fill-rule:nonzero;stroke:none"
                     transform="matrix(1,0,0,-1,396.925,612.734)"><tspan
                       id="tspan2625"
                       sodipodi:role="line"
                       y="0"
                       x="0 5.5352206 10.795473 15.776773 24.352579 29.8878">hookup</tspan></text>
<g
                     transform="translate(396.925,612.734)"
                     id="g2629" /></g></g><g
                 transform="translate(-178.95,-142.516)"
                 id="g2631" /></g></g><g
             id="g2633"><g
               transform="matrix(0.83461,-0.55638,0.55638,0.83461,164.109,133.008)"
               id="g2635"><g
                 id="g2637"><g
                   transform="translate(-382.084,-603.226)"
                   id="g2639"><text
                     id="text2643"
                     style="font-variant:normal;font-weight:normal;font-size:9.96259975px;font-family:CMTI10;-inkscape-font-specification:CMTI10;writing-mode:lr-tb;fill:#000000;fill-opacity:1;fill-rule:nonzero;stroke:none"
                     transform="matrix(1,0,0,-1,382.084,603.226)"><tspan
                       id="tspan2641"
                       sodipodi:role="line"
                       y="0"
                       x="0 5.0918851 10.692859 14.766565 21.385717 25.968513 33.736351 37.811054 42.902939 45.957474">answercall</tspan></text>
<g
                     transform="translate(382.084,603.226)"
                     id="g2645" /></g></g><g
                 transform="translate(-164.109,-133.008)"
                 id="g2647" /></g></g></g><g
           id="g2649"><path
             inkscape:connector-curvature="0"
             id="path2651"
             style="fill:none;stroke:#000000;stroke-width:0.59776002;stroke-linecap:butt;stroke-linejoin:miter;stroke-miterlimit:10;stroke-dasharray:none;stroke-opacity:1"
             d="M 226.54842,85.04042 H 31.10468" /><g
             transform="rotate(180,15.55234,42.52021)"
             id="g2653"><g
               id="g2655"><path
                 inkscape:connector-curvature="0"
                 id="path2657"
                 style="fill:#000000;fill-opacity:1;fill-rule:nonzero;stroke:#000000;stroke-width:0.59776002;stroke-linecap:butt;stroke-linejoin:round;stroke-miterlimit:10;stroke-dasharray:none;stroke-opacity:1"
                 d="m 0.91655,0 c -1.14568,0.22913 -2.29138,0.68741 -3.66621,1.4894 1.37483,-1.03113 1.37483,-1.94767 0,-2.9788 1.37483,0.80199 2.52053,1.26027 3.66621,1.4894 z" /></g></g><g
             id="g2659"><g
               transform="translate(104.058,88.659)"
               id="g2661"><g
                 id="g2663"><g
                   transform="translate(-322.033,-558.877)"
                   id="g2665"><text
                     id="text2669"
                     style="font-variant:normal;font-weight:normal;font-size:9.96259975px;font-family:CMR10;-inkscape-font-specification:CMR10;writing-mode:lr-tb;fill:#000000;fill-opacity:1;fill-rule:nonzero;stroke:none"
                     transform="matrix(1,0,0,-1,322.033,558.877)"><tspan
                       id="tspan2667"
                       sodipodi:role="line"
                       y="0"
                       x="0 5.5352206 10.795473 15.776773 24.352579 29.8878 34.590149 41.785137">hookdown</tspan></text>
<g
                     transform="translate(322.033,558.877)"
                     id="g2671" /></g></g><g
                 transform="translate(-104.058,-88.659)"
                 id="g2673" /></g></g><g
             id="g2675"><g
               transform="translate(110.401,74.502)"
               id="g2677"><g
                 id="g2679"><g
                   transform="translate(-328.376,-544.72)"
                   id="g2681"><text
                     id="text2685"
                     style="font-variant:normal;font-weight:normal;font-size:9.96259975px;font-family:CMTI10;-inkscape-font-specification:CMTI10;writing-mode:lr-tb;fill:#000000;fill-opacity:1;fill-rule:nonzero;stroke:none"
                     transform="matrix(1,0,0,-1,328.376,544.72)"><tspan
                       id="tspan2683"
                       sodipodi:role="line"
                       y="0"
                       x="0 4.5827961 10.18377 18.842266 22.916969 28.008854 31.063387">endcall</tspan></text>
<g
                     transform="translate(328.376,544.72)"
                     id="g2687" /></g></g><g
                 transform="translate(-110.401,-74.502)"
                 id="g2689" /></g></g></g><g
           id="g2691"><path
             inkscape:connector-curvature="0"
             id="path2693"
             style="fill:none;stroke:#000000;stroke-width:0.59776002;stroke-linecap:butt;stroke-linejoin:miter;stroke-miterlimit:10;stroke-dasharray:none;stroke-opacity:1"
             d="m 149.53612,14.65166 79.89206,53.2599" /><g
             transform="matrix(0.83461,0.5564,-0.5564,0.83461,229.42818,67.91156)"
             id="g2695"><g
               id="g2697"><path
                 inkscape:connector-curvature="0"
                 id="path2699"
                 style="fill:#000000;fill-opacity:1;fill-rule:nonzero;stroke:#000000;stroke-width:0.59776002;stroke-linecap:butt;stroke-linejoin:round;stroke-miterlimit:10;stroke-dasharray:none;stroke-opacity:1"
                 d="m 0.91655,0 c -1.14568,0.22913 -2.29138,0.68741 -3.66621,1.4894 1.37483,-1.03113 1.37483,-1.94767 0,-2.9788 1.37483,0.80199 2.52053,1.26027 3.66621,1.4894 z" /></g></g><g
             id="g2701"><g
               transform="matrix(0.83461,0.5564,-0.5564,0.83461,167.809,31.198)"
               id="g2703"><g
                 id="g2705"><g
                   transform="translate(-385.784,-501.416)"
                   id="g2707"><text
                     id="text2711"
                     style="font-variant:normal;font-weight:normal;font-size:9.96259975px;font-family:CMR10;-inkscape-font-specification:CMR10;writing-mode:lr-tb;fill:#000000;fill-opacity:1;fill-rule:nonzero;stroke:none"
                     transform="matrix(1,0,0,-1,385.784,501.416)"><tspan
                       id="tspan2709"
                       sodipodi:role="line"
                       y="0"
                       x="0 3.8744552 6.6420655 14.9439 19.371279 24.352579 29.8878 37.0798 45.388611">timeout3s</tspan></text>
<g
                     transform="translate(385.784,501.416)"
                     id="g2713" /></g></g><g
                 transform="translate(-167.809,-31.198)"
                 id="g2715" /></g></g><g
             id="g2717"><g
               transform="matrix(0.83461,0.5564,-0.5564,0.83461,174.835,18.815)"
               id="g2719"><g
                 id="g2721"><g
                   transform="translate(-392.81,-489.033)"
                   id="g2723"><text
                     id="text2727"
                     style="font-variant:normal;font-weight:normal;font-size:9.96259975px;font-family:CMTI10;-inkscape-font-specification:CMTI10;writing-mode:lr-tb;fill:#000000;fill-opacity:1;fill-rule:nonzero;stroke:none"
                     transform="matrix(1,0,0,-1,392.81,489.033)"><tspan
                       id="tspan2725"
                       sodipodi:role="line"
                       y="0"
                       x="0 4.0747032 9.1665878 12.221122 18.334173 23.935146 29.282074 37.429489 41.504192 46.086987">callnumber</tspan></text>
<g
                     transform="translate(392.81,489.033)"
                     id="g2729" /></g></g><g
                 transform="translate(-174.835,-18.815)"
                 id="g2731" /></g></g></g><g
           id="g2733"><path
             inkscape:connector-curvature="0"
             id="path2735"
             style="fill:none;stroke:#000000;stroke-width:0.59776002;stroke-linecap:butt;stroke-linejoin:miter;stroke-miterlimit:10;stroke-dasharray:none;stroke-opacity:1"
             d="M 102.0777,-6.82762 C 60.92328,-17.85573 60.92328,17.85573 99.93716,7.40198" /><g
             transform="matrix(0.96782,-0.25932,0.25932,0.96782,99.93716,7.402)"
             id="g2737"><g
               id="g2739"><path
                 inkscape:connector-curvature="0"
                 id="path2741"
                 style="fill:#000000;fill-opacity:1;fill-rule:nonzero;stroke:#000000;stroke-width:0.59776002;stroke-linecap:butt;stroke-linejoin:round;stroke-miterlimit:10;stroke-dasharray:none;stroke-opacity:1"
                 d="m 0.91655,0 c -1.14568,0.22913 -2.29138,0.68741 -3.66621,1.4894 1.37483,-1.03113 1.37483,-1.94767 0,-2.9788 1.37483,0.80199 2.52053,1.26027 3.66621,1.4894 z" /></g></g><g
             id="g2743"><g
               transform="translate(28.294,-2.49)"
               id="g2745"><g
                 id="g2747"><g
                   transform="translate(-246.269,-467.728)"
                   id="g2749"><text
                     id="text2753"
                     style="font-variant:normal;font-weight:normal;font-size:9.96259975px;font-family:CMR10;-inkscape-font-specification:CMR10;writing-mode:lr-tb;fill:#000000;fill-opacity:1;fill-rule:nonzero;stroke:none"
                     transform="matrix(1,0,0,-1,246.269,467.728)"><tspan
                       id="tspan2751"
                       sodipodi:role="line"
                       y="0"
                       x="0 5.5352206 8.3028307 13.284131 19.369287 24.904507 27.672117 32.653419 35.421028">dialdigit</tspan></text>
<g
                     transform="translate(246.269,467.728)"
                     id="g2755" /></g></g><g
                 transform="translate(-28.294,2.49)"
                 id="g2757" /></g></g></g></g></g><g
       id="g2759"><text
         id="text2763"
         style="font-variant:normal;font-weight:normal;font-size:9.96259975px;font-family:CMR10;-inkscape-font-specification:CMR10;writing-mode:lr-tb;fill:#000000;fill-opacity:1;fill-rule:nonzero;stroke:none"
         transform="matrix(1,0,0,-1,303.133,89.365)"><tspan
           id="tspan2761"
           y="0"
           x="0">1</tspan></text>
</g></g></svg>